<?xml version="1.0" encoding="utf-8"?>
<!-- Generator: Adobe Illustrator 17.0.0, SVG Export Plug-In . SVG Version: 6.00 Build 0)  -->
<!DOCTYPE svg PUBLIC "-//W3C//DTD SVG 1.1//EN" "http://www.w3.org/Graphics/SVG/1.1/DTD/svg11.dtd">
<svg version="1.1" id="Camada_1" xmlns="http://www.w3.org/2000/svg" xmlns:xlink="http://www.w3.org/1999/xlink" x="0px" y="0px"
	 width="26.14px" height="24.833px" viewBox="-12.474 -926.833 26.14 24.833"
	 enable-background="new -12.474 -926.833 26.14 24.833" xml:space="preserve">
<path fill="#FFFFFF" d="M-9.86-902c-0.719,0-1.334-0.256-1.846-0.768c-0.512-0.512-0.768-1.127-0.768-1.846v-14.377
	c0-0.719,0.256-1.334,0.768-1.846c0.512-0.512,1.127-0.768,1.846-0.768h5.228v-2.614c0-0.719,0.256-1.334,0.768-1.846
	s1.127-0.768,1.846-0.768h5.228c0.719,0,1.334,0.256,1.846,0.768s0.768,1.127,0.768,1.846v2.614h5.228
	c0.719,0,1.334,0.256,1.846,0.768c0.512,0.512,0.768,1.127,0.768,1.846v14.377c0,0.719-0.256,1.334-0.768,1.846
	c-0.512,0.512-1.127,0.768-1.846,0.768H-9.86z M-9.86-904.614h20.912v-14.377H-9.86V-904.614z M-2.018-921.605h5.228v-2.614h-5.228
	V-921.605z M-9.86-904.614v-14.377V-904.614z"/>
</svg>