<?xml version="1.0" encoding="utf-8"?>
<!-- Generator: Adobe Illustrator 17.0.0, SVG Export Plug-In . SVG Version: 6.00 Build 0)  -->
<!DOCTYPE svg PUBLIC "-//W3C//DTD SVG 1.1//EN" "http://www.w3.org/Graphics/SVG/1.1/DTD/svg11.dtd">
<svg version="1.1" id="Camada_1" xmlns="http://www.w3.org/2000/svg" xmlns:xlink="http://www.w3.org/1999/xlink" x="0px" y="0px"
	 width="319.848px" height="67.011px" viewBox="-245.537 -969.011 319.848 67.011"
	 enable-background="new -245.537 -969.011 319.848 67.011" xml:space="preserve">
<path fill="#FFFFFF" d="M-238.482-902c-1.938,0-3.6-0.691-4.982-2.073c-1.382-1.382-2.073-3.04-2.073-4.982v-38.793
	c0-1.938,0.691-3.6,2.073-4.982c1.382-1.382,3.04-2.073,4.982-2.073h14.107v-7.051c0-1.938,0.691-3.6,2.073-4.982
	c1.382-1.382,3.04-2.073,4.982-2.073h14.107c1.938,0,3.6,0.691,4.982,2.073c1.382,1.382,2.073,3.04,2.073,4.982v7.051h14.107
	c1.938,0,3.6,0.691,4.982,2.073s2.073,3.04,2.073,4.982v38.793c0,1.938-0.691,3.6-2.073,4.982c-1.382,1.382-3.04,2.073-4.982,2.073
	H-238.482z M-238.482-909.051h56.423v-38.793h-56.423V-909.051z M-217.324-954.899h14.107v-7.051h-14.107V-954.899z
	 M-238.482-909.051v-38.793V-909.051z"/>
<g>
	<path fill="#FFFFFF" d="M-150.025-911.034v-38.535h10.665c3.686,0,6.568,0.863,8.641,2.593c2.073,1.73,3.108,4.323,3.108,7.783
		c0,1.798-0.452,3.397-1.351,4.793c-0.899,1.396-2.155,2.417-3.758,3.072c2.24,0.37,3.966,1.432,5.177,3.189
		c1.211,1.757,1.811,3.826,1.811,6.207c0,3.546-1.021,6.251-3.058,8.113s-4.842,2.787-8.424,2.787H-150.025z M-144.65-932.87h6.116
		c1.73-0.054,3.085-0.614,4.061-1.68c0.976-1.066,1.468-2.579,1.468-4.54c0-2.118-0.538-3.704-1.613-4.765
		c-1.075-1.061-2.656-1.59-4.738-1.59h-5.294V-932.87z M-144.65-929.008v13.894h7.435c1.942,0,3.442-0.587,4.499-1.762
		c1.057-1.174,1.59-2.855,1.59-5.041c0-2.118-0.515-3.812-1.549-5.082c-1.034-1.269-2.484-1.942-4.354-2.01h-0.289L-144.65-929.008
		L-144.65-929.008z"/>
	<path fill="#FFFFFF" d="M-105.821-911.034c-0.23-0.863-0.411-1.635-0.542-2.317c-0.131-0.682-0.217-1.355-0.253-2.024
		c-0.759,1.414-1.762,2.579-3.004,3.505s-2.661,1.391-4.246,1.391c-2.557,0-4.522-0.759-5.89-2.277
		c-1.369-1.518-2.051-3.591-2.051-6.22c0-2.701,0.949-4.824,2.846-6.378c1.897-1.554,4.54-2.331,7.927-2.331h4.395v-2.936
		c0-1.748-0.388-3.108-1.165-4.088s-1.888-1.468-3.334-1.468c-1.305,0-2.344,0.425-3.108,1.269
		c-0.763,0.845-1.152,1.933-1.152,3.257l-5.136,0.027l-0.054-0.158c-0.104-2.222,0.759-4.183,2.593-5.877
		c1.834-1.694,4.237-2.543,7.2-2.543c2.841,0,5.145,0.836,6.907,2.503c1.762,1.667,2.647,4.047,2.647,7.132v13.285
		c0,1.093,0.072,2.159,0.212,3.189s0.361,2.051,0.659,3.058L-105.821-911.034L-105.821-911.034z M-112.759-914.607
		c1.464,0,2.76-0.456,3.889-1.364c1.129-0.908,1.87-2.005,2.222-3.293v-5.082h-4.472c-1.658,0-2.954,0.524-3.889,1.576
		c-0.935,1.052-1.405,2.317-1.405,3.799c0,1.324,0.316,2.38,0.953,3.176S-113.92-914.607-112.759-914.607z"/>
	<path fill="#FFFFFF" d="M-85.151-914.553c1.324,0,2.43-0.51,3.32-1.536c0.89-1.026,1.337-2.408,1.337-4.156h4.842l0.054,0.158
		c0.072,2.701-0.84,4.978-2.728,6.83c-1.888,1.852-4.165,2.778-6.83,2.778c-3.528,0-6.256-1.346-8.18-4.038
		c-1.924-2.692-2.886-6.125-2.886-10.308v-1.007c0-4.165,0.962-7.602,2.886-10.308c1.924-2.706,4.648-4.061,8.18-4.061
		c2.859,0,5.181,0.967,6.974,2.9c1.793,1.933,2.661,4.44,2.606,7.53l-0.054,0.131h-4.865c0-1.906-0.429-3.456-1.283-4.644
		c-0.854-1.188-1.978-1.789-3.374-1.789c-2.01,0-3.465,0.971-4.354,2.914c-0.89,1.942-1.337,4.386-1.337,7.331v1.007
		c0,2.999,0.443,5.461,1.324,7.385C-88.638-915.51-87.179-914.553-85.151-914.553z"/>
	<path fill="#FFFFFF" d="M-63.157-924.161h-2.01v13.127h-5.371v-41.291h5.371v24.058h1.879l6.88-11.406h6.324l-8.759,13.023
		l9.712,15.615h-6.274L-63.157-924.161z"/>
	<path fill="#FFFFFF" d="M-19.355-924.983c0,4.571-1.233,8.131-3.704,10.678s-5.777,3.826-9.924,3.826
		c-4.092,0-7.349-1.274-9.766-3.826c-2.417-2.552-3.627-6.112-3.627-10.678v-10.588c0-4.553,1.211-8.117,3.627-10.692
		s5.664-3.862,9.739-3.862c4.147,0,7.458,1.283,9.938,3.853c2.48,2.57,3.718,6.134,3.718,10.705
		C-19.355-935.566-19.355-924.983-19.355-924.983z M-24.699-935.648c0-3.352-0.718-5.899-2.159-7.634s-3.487-2.607-6.152-2.607
		c-2.575,0-4.558,0.867-5.94,2.607c-1.382,1.739-2.078,4.282-2.078,7.634v10.665c0,3.388,0.696,5.953,2.091,7.702
		c1.396,1.748,3.379,2.62,5.954,2.62c2.665,0,4.711-0.867,6.139-2.606s2.146-4.309,2.146-7.715
		C-24.699-924.983-24.699-935.648-24.699-935.648z"/>
	<path fill="#FFFFFF" d="M-11.839-911.034v-24.799h-3.785v-3.839h3.785v-3.677c0-3.035,0.736-5.38,2.209-7.042
		s3.532-2.489,6.179-2.489c0.529,0,1.071,0.05,1.626,0.144c0.556,0.095,1.161,0.235,1.811,0.411l-0.501,3.943
		c-0.334-0.09-0.687-0.158-1.057-0.212s-0.777-0.081-1.22-0.081c-1.202,0-2.114,0.461-2.737,1.378
		c-0.623,0.917-0.94,2.232-0.94,3.943v3.677h4.738v3.839h-4.738v24.799h-5.371V-911.034z"/>
	<path fill="#FFFFFF" d="M3.935-911.034v-24.799H0.15v-3.839h3.785v-2.936c0-3.266,0.867-5.791,2.606-7.584
		c1.739-1.793,4.169-2.688,7.291-2.688c1.111,0,2.222,0.136,3.334,0.411s2.331,0.664,3.654,1.179l-0.822,4.183
		c-0.899-0.388-1.816-0.7-2.751-0.94s-1.96-0.357-3.072-0.357c-1.658,0-2.886,0.488-3.677,1.468c-0.79,0.98-1.193,2.421-1.193,4.327
		v2.936h4.978v3.839H9.306v24.799L3.935-911.034L3.935-911.034z M23.363-911.034h-5.398v-28.638h5.398V-911.034z"/>
	<path fill="#FFFFFF" d="M39.877-914.553c1.324,0,2.43-0.51,3.32-1.536c0.89-1.026,1.337-2.408,1.337-4.156h4.842l0.054,0.158
		c0.072,2.701-0.84,4.978-2.728,6.83c-1.888,1.852-4.165,2.778-6.83,2.778c-3.528,0-6.256-1.346-8.18-4.038
		c-1.924-2.692-2.886-6.125-2.886-10.308v-1.007c0-4.165,0.962-7.602,2.886-10.308c1.924-2.706,4.648-4.061,8.18-4.061
		c2.859,0,5.181,0.967,6.974,2.9c1.793,1.933,2.661,4.44,2.606,7.53l-0.054,0.131h-4.86c0-1.906-0.429-3.456-1.283-4.644
		c-0.854-1.188-1.978-1.789-3.374-1.789c-2.01,0-3.465,0.971-4.354,2.914s-1.337,4.386-1.337,7.331v1.007
		c0,2.999,0.443,5.461,1.324,7.385C36.395-915.51,37.849-914.553,39.877-914.553z"/>
	<path fill="#FFFFFF" d="M64.812-910.479c-3.564,0-6.356-1.305-8.375-3.916c-2.019-2.611-3.031-6.008-3.031-10.19v-1.242
		c0-4.201,1.007-7.643,3.017-10.335c2.01-2.692,4.639-4.038,7.887-4.038c3.266,0,5.746,1.156,7.449,3.469
		c1.703,2.313,2.552,5.416,2.552,9.319v3.018H58.777c0,2.927,0.524,5.303,1.576,7.119c1.052,1.816,2.661,2.728,4.829,2.728
		c1.5,0,2.805-0.235,3.916-0.7s2.137-1.152,3.072-2.051l1.748,3.333c-0.953,0.989-2.209,1.816-3.772,2.489
		S66.804-910.479,64.812-910.479z M64.31-936.072c-1.554,0-2.787,0.718-3.704,2.159c-0.917,1.441-1.491,3.338-1.721,5.705h10.136
		v-0.61c0-2.155-0.384-3.898-1.152-5.24C67.102-935.399,65.914-936.072,64.31-936.072z"/>
</g>
</svg>
