<?xml version="1.0" encoding="utf-8"?>
<!-- Generator: Adobe Illustrator 17.0.0, SVG Export Plug-In . SVG Version: 6.00 Build 0)  -->
<!DOCTYPE svg PUBLIC "-//W3C//DTD SVG 1.1//EN" "http://www.w3.org/Graphics/SVG/1.1/DTD/svg11.dtd">
<svg version="1.1" id="Camada_1" xmlns="http://www.w3.org/2000/svg" xmlns:xlink="http://www.w3.org/1999/xlink" x="0px" y="0px"
	 width="330.047px" height="81.105px" viewBox="0 0 330.047 81.105" enable-background="new 0 0 330.047 81.105"
	 xml:space="preserve">
<g enable-background="new    ">
	<path fill="#FFFFFF" d="M35.367,40.676h-20.25v20.917H4.57V10.406h33.328v8.543H15.117v13.219h20.25V40.676z"/>
	<path fill="#FFFFFF" d="M41.027,42.222c0-3.773,0.726-7.136,2.18-10.089c1.453-2.953,3.545-5.238,6.275-6.855
		c2.73-1.617,5.9-2.426,9.51-2.426c5.133,0,9.322,1.57,12.568,4.711c3.246,3.141,5.057,7.406,5.432,12.797l0.07,2.601
		c0,5.836-1.629,10.518-4.887,14.045c-3.258,3.527-7.629,5.291-13.113,5.291s-9.861-1.758-13.131-5.273s-4.904-8.297-4.904-14.344
		V42.222z M51.188,42.944c0,3.614,0.68,6.379,2.039,8.292c1.359,1.913,3.305,2.869,5.836,2.869c2.461,0,4.382-0.945,5.766-2.834
		c1.383-1.891,2.074-4.912,2.074-9.067c0-3.543-0.691-6.29-2.074-8.239c-1.383-1.947-3.328-2.922-5.836-2.922
		c-2.484,0-4.407,0.969-5.766,2.904C51.867,35.885,51.188,38.884,51.188,42.944z"/>
	<path fill="#FFFFFF" d="M92.848,23.555l0.316,4.254c2.695-3.305,6.34-4.957,10.934-4.957c4.898,0,8.262,1.934,10.09,5.801
		c2.672-3.867,6.48-5.801,11.426-5.801c4.125,0,7.195,1.201,9.211,3.604c2.016,2.402,3.023,6.018,3.023,10.846v24.292h-10.195
		V37.336c0-2.156-0.422-3.732-1.266-4.729s-2.333-1.494-4.465-1.494c-3.047,0-5.156,1.453-6.328,4.359l0.035,26.121h-10.16V37.371
		c0-2.203-0.434-3.797-1.301-4.781c-0.867-0.984-2.344-1.477-4.43-1.477c-2.883,0-4.969,1.195-6.258,3.586v26.894H83.32V23.555
		H92.848z"/>
	<path fill="#FFFFFF" d="M163.16,62.297c-5.578,0-10.12-1.711-13.623-5.133c-3.504-3.422-5.256-7.98-5.256-13.676v-0.984
		c0-3.82,0.738-7.236,2.215-10.248s3.568-5.332,6.275-6.961s5.795-2.443,9.264-2.443c5.203,0,9.299,1.641,12.287,4.922
		s4.482,7.934,4.482,13.957v4.148h-24.223c0.328,2.484,1.318,4.477,2.971,5.977s3.744,2.25,6.275,2.25
		c3.914,0,6.973-1.418,9.176-4.254l4.992,5.59c-1.524,2.156-3.586,3.838-6.188,5.045S166.324,62.297,163.16,62.297z M162,31.043
		c-2.016,0-3.651,0.683-4.904,2.049c-1.254,1.365-2.057,3.319-2.408,5.861h14.133v-0.813c-0.048-2.26-0.656-4.008-1.828-5.244
		C165.819,31.661,164.156,31.043,162,31.043z"/>
	<path fill="#FFFFFF" d="M196.418,53.121h25.805v8.473h-38.988v-6.188l25.313-36.457H183.27v-8.543h38.391v6.047L196.418,53.121z"/>
	<path fill="#FFFFFF" d="M244.969,62.297c-5.578,0-10.12-1.711-13.623-5.133c-3.504-3.422-5.256-7.98-5.256-13.676v-0.984
		c0-3.82,0.738-7.236,2.215-10.248s3.568-5.332,6.275-6.961s5.795-2.443,9.264-2.443c5.203,0,9.299,1.641,12.287,4.922
		s4.482,7.934,4.482,13.957v4.148h-24.223c0.328,2.484,1.318,4.477,2.971,5.977s3.744,2.25,6.275,2.25
		c3.914,0,6.973-1.418,9.176-4.254l4.992,5.59c-1.524,2.156-3.586,3.838-6.188,5.045S248.133,62.297,244.969,62.297z
		 M243.809,31.043c-2.017,0-3.651,0.683-4.904,2.049c-1.254,1.365-2.057,3.319-2.408,5.861h14.133v-0.813
		c-0.048-2.26-0.656-4.008-1.828-5.244C247.628,31.661,245.965,31.043,243.809,31.043z"/>
	<path fill="#FFFFFF" d="M287.754,33.082c-1.384-0.188-2.602-0.281-3.656-0.281c-3.845,0-6.363,1.301-7.559,3.902v24.89h-10.16
		V23.555h9.598l0.281,4.535c2.039-3.492,4.863-5.238,8.473-5.238c1.125,0,2.18,0.152,3.164,0.457L287.754,33.082z"/>
	<path fill="#FFFFFF" d="M326.672,40.43c0,7.078-1.465,12.492-4.395,16.242c-2.931,3.75-7.22,5.625-12.867,5.625
		c-5.578,0-9.844-1.84-12.797-5.52s-4.465-8.953-4.535-15.82v-9.422c0-7.148,1.481-12.574,4.447-16.277
		c2.965-3.703,7.236-5.555,12.814-5.555c5.577,0,9.844,1.834,12.797,5.502s4.465,8.936,4.535,15.803V40.43z M316.512,30.071
		c0-4.246-0.58-7.337-1.74-9.272s-2.971-2.903-5.432-2.903c-2.391,0-4.154,0.921-5.291,2.763c-1.138,1.842-1.74,4.722-1.811,8.639
		v12.458c0,4.176,0.567,7.278,1.705,9.308c1.137,2.029,2.958,3.044,5.467,3.044c2.483,0,4.276-0.974,5.379-2.921
		c1.102-1.946,1.675-4.926,1.723-8.938V30.071z"/>
</g>
</svg>
