<?xml version="1.0" standalone="no"?>
<!DOCTYPE svg PUBLIC "-//W3C//DTD SVG 20010904//EN"
 "http://www.w3.org/TR/2001/REC-SVG-20010904/DTD/svg10.dtd">
<svg version="1.0" xmlns="http://www.w3.org/2000/svg"
 width="1022.000000pt" height="1022.000000pt" viewBox="0 0 1022.000000 1022.000000"
 preserveAspectRatio="xMidYMid meet">
<metadata>
Created by potrace 1.14, written by Peter Selinger 2001-2017
</metadata>
<g transform="translate(0.000000,1022.000000) scale(0.100000,-0.100000)"
fill="#000000" stroke="none">
<path d="M4869 10206 c-2 -2 -53 -7 -114 -10 -60 -4 -123 -9 -140 -11 -16 -2
-55 -7 -85 -10 -61 -6 -83 -9 -185 -24 -109 -17 -316 -56 -395 -76 -11 -3 -28
-7 -37 -9 -143 -33 -507 -144 -588 -180 -16 -7 -52 -22 -80 -32 -27 -10 -61
-24 -74 -31 -14 -6 -28 -10 -33 -7 -4 3 -8 1 -8 -3 0 -7 -56 -34 -80 -38 -3
-1 -45 -21 -95 -45 -49 -24 -92 -44 -95 -45 -6 -1 -79 -39 -145 -75 -27 -15
-75 -40 -105 -56 -30 -16 -57 -32 -60 -35 -3 -3 -16 -12 -30 -19 -46 -23 -205
-124 -208 -132 -2 -4 -8 -8 -12 -8 -5 0 -55 -33 -111 -72 -55 -40 -108 -77
-117 -83 -18 -12 -59 -44 -78 -62 -7 -7 -15 -13 -19 -13 -3 0 -16 -9 -28 -21
-12 -11 -43 -37 -69 -57 -27 -20 -48 -40 -48 -44 0 -4 -5 -8 -10 -8 -6 0 -21
-10 -34 -22 -13 -13 -56 -52 -96 -88 -99 -88 -310 -300 -310 -312 0 -5 -4 -6
-10 -3 -5 3 -10 3 -10 -2 0 -4 -16 -26 -36 -48 -20 -22 -53 -61 -74 -87 -21
-26 -40 -44 -44 -41 -3 4 -6 2 -6 -4 0 -5 -46 -69 -102 -141 -57 -72 -114
-147 -128 -167 -14 -20 -31 -42 -37 -50 -7 -7 -13 -18 -13 -22 0 -5 -8 -18
-17 -29 -28 -30 -143 -209 -143 -221 0 -6 -4 -13 -8 -15 -5 -1 -23 -30 -42
-63 -18 -33 -38 -63 -43 -66 -5 -3 -7 -8 -6 -10 2 -2 -13 -34 -34 -71 -20 -36
-37 -71 -37 -76 0 -5 -7 -15 -15 -22 -8 -6 -14 -15 -13 -18 1 -6 -75 -171
-112 -243 -4 -9 -27 -63 -50 -120 -23 -57 -48 -117 -55 -134 -35 -80 -160
-477 -180 -570 -6 -25 -34 -152 -42 -185 -3 -14 -7 -29 -8 -35 -7 -26 -27
-140 -31 -173 -2 -20 -6 -44 -9 -52 -4 -14 -8 -41 -20 -140 -3 -22 -8 -59 -11
-82 -28 -193 -39 -729 -20 -938 4 -47 9 -107 11 -135 5 -58 35 -287 41 -319 2
-11 7 -34 9 -51 6 -33 23 -125 31 -165 4 -21 34 -149 49 -212 67 -285 266
-824 376 -1021 6 -10 37 -71 71 -135 33 -64 67 -125 76 -136 10 -10 16 -21 15
-25 -5 -22 319 -502 384 -569 7 -7 13 -16 13 -20 0 -4 13 -21 28 -38 24 -28
65 -76 115 -137 111 -134 383 -406 537 -537 36 -30 67 -57 70 -61 42 -47 609
-449 635 -449 4 0 19 -8 33 -19 33 -23 107 -64 189 -106 34 -18 68 -36 75 -42
30 -22 378 -178 484 -216 22 -8 84 -31 139 -51 55 -20 108 -39 118 -41 9 -2
21 -6 26 -9 5 -3 33 -12 62 -20 30 -9 88 -25 129 -36 64 -19 154 -42 210 -55
52 -12 169 -37 190 -40 14 -2 61 -10 105 -19 44 -8 103 -18 130 -22 28 -3 59
-8 70 -9 176 -27 388 -39 655 -39 223 0 472 9 510 19 8 2 42 7 74 10 33 3 74
8 93 10 18 3 50 7 70 10 21 3 79 13 128 22 50 8 97 17 105 18 70 9 400 90 453
110 20 8 37 12 37 10 0 -3 9 -1 21 5 11 6 30 13 42 16 40 7 272 89 275 97 2 4
11 7 20 7 48 0 621 271 729 344 21 15 41 26 46 26 4 0 13 5 20 10 7 6 57 38
112 72 55 34 102 65 103 70 2 4 10 8 18 8 8 0 14 5 14 10 0 6 7 10 15 10 8 0
15 5 15 10 0 6 4 10 10 10 5 0 18 6 27 14 10 8 65 49 123 92 58 42 113 85 123
95 10 11 21 19 25 19 4 0 21 12 37 28 17 15 62 54 100 87 189 162 453 430 570
578 17 21 44 54 60 72 17 19 46 56 65 82 19 27 40 54 47 61 7 7 20 26 30 42 9
17 21 30 25 30 4 0 8 6 8 14 0 8 4 16 9 18 13 5 224 330 224 345 0 7 4 13 8
13 4 0 29 39 55 87 26 49 56 103 66 121 25 45 82 156 83 162 1 3 16 37 35 75
19 39 35 72 35 75 2 6 29 68 50 115 21 48 64 159 67 175 2 8 5 17 8 20 12 11
144 435 166 531 2 10 6 27 8 36 17 67 55 250 65 308 7 39 16 95 21 125 14 82
25 172 35 290 4 41 9 91 12 110 8 65 10 605 2 694 -5 49 -11 118 -13 155 -8
101 -20 191 -42 326 -20 121 -21 125 -38 215 -2 8 -6 26 -9 40 -19 76 -49 208
-53 225 -2 11 -15 58 -29 105 -15 47 -28 92 -30 100 -8 35 -85 259 -104 303
-11 26 -20 48 -20 50 0 1 -4 15 -10 30 -6 16 -11 30 -11 33 0 2 -11 27 -25 56
-14 28 -25 55 -25 60 0 24 -203 424 -280 553 -17 28 -38 65 -47 83 -9 17 -20
32 -25 32 -4 0 -8 5 -8 10 0 13 -160 254 -172 258 -4 2 -8 8 -8 13 0 5 -7 17
-15 26 -8 10 -35 45 -60 78 -84 112 -72 96 -175 220 -41 49 -94 109 -117 132
-23 24 -40 43 -38 43 6 0 -254 257 -325 320 -40 36 -78 70 -84 75 -6 6 -47 40
-91 75 -44 36 -81 68 -83 72 -2 5 -8 8 -13 8 -8 0 -42 26 -75 58 -7 6 -16 12
-19 12 -4 0 -26 16 -49 35 -24 19 -48 35 -54 35 -6 0 -12 4 -14 8 -3 9 -244
172 -253 172 -4 0 -25 13 -48 29 -38 26 -384 215 -397 217 -3 0 -34 14 -70 31
-112 52 -160 73 -233 103 -40 16 -85 34 -102 41 -16 7 -34 14 -40 15 -5 2 -90
31 -188 64 -98 33 -188 62 -200 65 -12 2 -76 18 -142 35 -66 17 -129 33 -140
36 -11 2 -31 6 -45 9 -85 19 -186 37 -330 59 -114 18 -158 23 -264 31 -45 4
-92 9 -106 11 -29 6 -606 15 -611 10z"/>
</g>
</svg>
