<?xml version="1.0" encoding="utf-8"?>
<!-- Generator: Adobe Illustrator 17.0.0, SVG Export Plug-In . SVG Version: 6.00 Build 0)  -->
<!DOCTYPE svg PUBLIC "-//W3C//DTD SVG 1.1//EN" "http://www.w3.org/Graphics/SVG/1.1/DTD/svg11.dtd">
<svg version="1.1" id="Camada_1" xmlns="http://www.w3.org/2000/svg" xmlns:xlink="http://www.w3.org/1999/xlink" x="0px" y="0px"
	 width="840.002px" height="331.719px" viewBox="10.998 28.381 840.002 331.719"
	 enable-background="new 10.998 28.381 840.002 331.719" xml:space="preserve">
<g transform="translate(0.000000,412.000000) scale(0.100000,-0.100000)">
	<path d="M392,3829c-147-25-243-122-271-274c-8-40-11-474-11-1390c0-1474-3-1398,65-1502c19-28,55-66,79-83c95-64-7-60,1524-61h1395
		l61,29c107,51,180,150,194,264c4,29,5,667,2,1418l-5,1365l-27,52c-38,72-89,120-167,157l-66,31l-1360,1
		C1050,3837,422,3834,392,3829z M1981,3079c76-26,119-93,119-189c0-63,21-90,70-90c163,0,230-71,230-245v-55h78c101,0,155-26,192-91
		l25-44l3-440c2-242,0-463-3-492c-8-64-38-110-90-140c-40-23-41-23-523-23c-528,0-525,0-575,59c-33,40-47,89-47,169v64l-40-7
		c-21-4-64-1-95,5c-101,21-153,90-162,216l-6,74h-43c-69,0-142,20-175,47c-65,55-64,42-67,542c-3,490,0,536,46,590
		c50,59,60,60,568,61C1804,3090,1958,3086,1981,3079z"/>
	<path d="M1330,2751c-61-9-84-24-104-65c-14-30-16-84-16-415v-381h125h125v205c0,226,9,291,48,337c47,56,75,62,312,66
		c177,3,218,7,233,19c14,14,17,34,17,130v113l-347-1C1531,2758,1355,2754,1330,2751z"/>
	<path d="M2108,2233c-3-215-4-231-26-275c-14-29-38-56-60-70c-35-22-47-23-279-26l-243-3v-114c0-127,5-139,67-151c20-4,183-3,362,1
		c341,7,367,11,406,55c19,21,20,38,23,416l3,394h-125h-125L2108,2233z"/>
	<path d="M4732,3029c-318-53-529-276-596-629c-20-106-21-326-1-449c48-291,193-497,416-587c181-74,516-70,677,7c65,32,68,43,37,175
		c-15,63-31,114-36,114s-57-14-116-30c-205-58-367-30-490,83c-61,56-87,100-126,210c-31,89-32,97-31,252c0,145,3,168,28,250
		c46,151,109,234,215,284c53,25,64,26,211,26c85,0,187-2,225-5l70-5l27,105c38,152,39,146-36,169C5081,3038,4866,3051,4732,3029z"/>
	<path d="M7005,3024c-16-2-79-9-140-15c-60-6-113-16-117-23c-4-6-8-370-8-808c0-768,1-799,19-817c17-17,44-19,306-26
		c386-10,470-2,589,57c66,33,153,110,198,176c92,134,92,340-1,475c-54,79-123,128-236,167l-50,18l30,11c195,76,286,215,273,416
		c-12,177-140,303-358,350C7438,3021,7080,3034,7005,3024z M7324,2750c62-7,111-17,130-28c62-36,100-146,77-224
		c-16-53-81-122-145-153c-60-29-192-48-273-38l-53,6v226v226l83-3C7188,2761,7270,2755,7324,2750z M7335,2049c62-6,115-17,141-30
		c52-25,91-80,103-144c28-150-77-267-262-290c-70-9-220,2-241,18c-13,10-17,47-23,223c-3,116-4,218-1,226
		C7059,2068,7152,2067,7335,2049z"/>
	<path d="M8202,2998c-9-9-12-207-12-830v-818h160h160v830v830h-148C8260,3010,8210,3006,8202,2998z"/>
	<path d="M5500,2175v-825h500h500v140v140l-332,2l-333,3l-3,203l-2,202h300h300v145v145h-300h-300l2,193l3,192l323,3l322,2v140v140
		h-490h-490V2175z"/>
</g>
</svg>
