<?xml version="1.0" encoding="utf-8"?>
<!-- Generator: Adobe Illustrator 17.0.0, SVG Export Plug-In . SVG Version: 6.00 Build 0)  -->
<!DOCTYPE svg PUBLIC "-//W3C//DTD SVG 1.1//EN" "http://www.w3.org/Graphics/SVG/1.1/DTD/svg11.dtd">
<svg version="1.1" id="Camada_1" xmlns="http://www.w3.org/2000/svg" xmlns:xlink="http://www.w3.org/1999/xlink" x="0px" y="0px"
	 width="1252.747px" height="331.719px" viewBox="0 351.759 1252.747 331.719" enable-background="new 0 351.759 1252.747 331.719"
	 xml:space="preserve">
<g transform="translate(0.000000,412.000000) scale(0.100000,-0.100000)">
	<path fill="#FFFFFF" d="M282.02,595.215c-147-25-243-122-271-274c-8-40-11-474-11-1390c0-1474-3-1398,65-1502c19-28,55-66,79-83
		c95-64-7-60,1524-61h1395l61,29c107,51,180,150,194,264c4,29,5,667,2,1418l-5,1365l-27,52c-38,72-89,120-167,157l-66,31l-1360,1
		C940.02,603.215,312.02,600.215,282.02,595.215z M1871.02-154.785c76-26,119-93,119-189c0-63,21-90,70-90c163,0,230-71,230-245v-55
		h78c101,0,155-26,192-91l25-44l3-440c2-242,0-463-3-492c-8-64-38-110-90-140c-40-23-41-23-523-23c-528,0-525,0-575,59
		c-33,40-47,89-47,169v64l-40-7c-21-4-64-1-95,5c-101,21-153,90-162,216l-6,74h-43c-69,0-142,20-175,47c-65,55-64,42-67,542
		c-3,490,0,536,46,590c50,59,60,60,568,61C1694.02-143.785,1848.02-147.785,1871.02-154.785z"/>
	<path fill="#FFFFFF" d="M1220.02-482.785c-61-9-84-24-104-65c-14-30-16-84-16-415v-381h125h125v205c0,226,9,291,48,337
		c47,56,75,62,312,66c177,3,218,7,233,19c14,14,17,34,17,130v113l-347-1C1421.02-475.785,1245.02-479.785,1220.02-482.785z"/>
	<path fill="#FFFFFF" d="M1998.02-1000.785c-3-215-4-231-26-275c-14-29-38-56-60-70c-35-22-47-23-279-26l-243-3v-114
		c0-127,5-139,67-151c20-4,183-3,362,1c341,7,367,11,406,55c19,21,20,38,23,416l3,394h-125h-125L1998.02-1000.785z"/>
</g>
<g>
	<path fill="#FFFFFF" d="M368.06,584.741V448.735h93.237v23.008h-65.776v32.192h56.777v23.008h-56.777v57.798H368.06z"/>
	<path fill="#FFFFFF" d="M477.718,534.086c0-8.658,2.134-17.039,6.401-25.142c4.268-8.102,10.313-14.287,18.138-18.555
		c7.823-4.268,16.56-6.401,26.208-6.401c14.904,0,27.12,4.84,36.646,14.52c9.523,9.68,14.287,21.91,14.287,36.691
		c0,14.906-4.81,27.261-14.426,37.063c-9.618,9.805-21.726,14.705-36.321,14.705c-9.031,0-17.643-2.041-25.837-6.123
		c-8.196-4.082-14.427-10.066-18.694-17.951C479.852,555.006,477.718,545.405,477.718,534.086z M504.437,535.478
		c0,9.772,2.319,17.256,6.958,22.451c4.639,5.195,10.358,7.793,17.163,7.793c6.803,0,12.509-2.598,17.117-7.793
		c4.606-5.195,6.911-12.74,6.911-22.637c0-9.648-2.305-17.07-6.911-22.266c-4.608-5.195-10.314-7.793-17.117-7.793
		c-6.805,0-12.524,2.598-17.163,7.793C506.756,518.222,504.437,525.706,504.437,535.478z"/>
	<path fill="#FFFFFF" d="M597.859,486.215h24.028v13.452c8.596-10.452,18.833-15.679,30.708-15.679
		c6.309,0,11.782,1.299,16.421,3.896s8.442,6.525,11.411,11.782c4.328-5.257,8.999-9.185,14.009-11.782s10.358-3.896,16.05-3.896
		c7.236,0,13.359,1.47,18.369,4.406c5.01,2.939,8.751,7.253,11.226,12.942c1.793,4.206,2.69,11.01,2.69,20.41v62.993h-26.069
		v-56.313c0-9.771-0.897-16.08-2.69-18.926c-2.412-3.711-6.123-5.566-11.133-5.566c-3.65,0-7.083,1.113-10.298,3.34
		c-3.217,2.227-5.536,5.489-6.958,9.788c-1.424,4.299-2.134,11.086-2.134,20.363v47.314H657.42v-53.994
		c0-9.586-0.464-15.771-1.392-18.555s-2.366-4.854-4.313-6.216c-1.949-1.36-4.593-2.041-7.933-2.041
		c-4.021,0-7.64,1.083-10.854,3.247c-3.217,2.166-5.52,5.288-6.912,9.37c-1.391,4.082-2.087,10.854-2.087,20.317v47.871h-26.069
		V486.215z"/>
	<path fill="#FFFFFF" d="M825.804,553.383l25.977,4.36c-3.34,9.525-8.613,16.777-15.818,21.755
		c-7.205,4.98-16.221,7.469-27.043,7.469c-17.133,0-29.813-5.597-38.037-16.792c-6.494-8.968-9.741-20.286-9.741-33.955
		c0-16.328,4.268-29.114,12.803-38.362c8.535-9.245,19.327-13.869,32.378-13.869c14.658,0,26.223,4.84,34.697,14.52
		c8.473,9.68,12.524,24.508,12.153,44.484h-65.313c0.186,7.732,2.287,13.746,6.309,18.045c4.02,4.299,9.029,6.447,15.029,6.447
		c4.082,0,7.515-1.113,10.298-3.34S824.38,558.332,825.804,553.383z M827.288,527.035c-0.186-7.545-2.134-13.281-5.845-17.209
		s-8.227-5.892-13.545-5.892c-5.691,0-10.391,2.073-14.102,6.216c-3.711,4.145-5.536,9.773-5.474,16.885H827.288z"/>
	<path fill="#FFFFFF" d="M862.82,584.741V559.97l71.436-88.228h-63.364v-23.008h99.546v21.338l-74.497,91.753h77.373v22.915H862.82z
		"/>
	<path fill="#FFFFFF" d="M1047.532,553.383l25.977,4.36c-3.34,9.525-8.613,16.777-15.818,21.755
		c-7.205,4.98-16.221,7.469-27.043,7.469c-17.133,0-29.813-5.597-38.037-16.792c-6.494-8.968-9.741-20.286-9.741-33.955
		c0-16.328,4.268-29.114,12.803-38.362c8.535-9.245,19.327-13.869,32.378-13.869c14.658,0,26.223,4.84,34.697,14.52
		c8.473,9.68,12.524,24.508,12.153,44.484h-65.313c0.186,7.732,2.287,13.746,6.309,18.045c4.02,4.299,9.029,6.447,15.029,6.447
		c4.082,0,7.515-1.113,10.298-3.34S1046.108,558.332,1047.532,553.383z M1049.017,527.035c-0.186-7.545-2.134-13.281-5.845-17.209
		s-8.227-5.892-13.545-5.892c-5.691,0-10.391,2.073-14.102,6.216c-3.711,4.145-5.536,9.773-5.474,16.885H1049.017z"/>
	<path fill="#FFFFFF" d="M1121.102,584.741h-26.069v-98.525h24.214v14.009c4.143-6.617,7.87-10.978,11.18-13.081
		c3.308-2.102,7.064-3.154,11.271-3.154c5.938,0,11.657,1.64,17.163,4.917l-8.071,22.729c-4.393-2.844-8.475-4.268-12.246-4.268
		c-3.65,0-6.742,1.006-9.277,3.016c-2.537,2.01-4.531,5.645-5.984,10.9c-1.453,5.258-2.18,16.268-2.18,33.027V584.741z"/>
	<path fill="#FFFFFF" d="M1208.587,448.178c13.174,0,23.472,4.701,30.894,14.102c8.844,11.133,13.267,29.595,13.267,55.386
		c0,25.729-4.453,44.223-13.359,55.479c-7.361,9.277-17.627,13.916-30.801,13.916c-13.236,0-23.905-5.087-32.007-15.261
		c-8.104-10.174-12.153-28.311-12.153-54.412c0-25.605,4.453-44.035,13.359-55.293
		C1185.146,452.817,1195.413,448.178,1208.587,448.178z M1208.587,469.794c-3.154,0-5.97,1.006-8.442,3.015
		c-2.475,2.012-4.393,5.613-5.752,10.809c-1.795,6.742-2.69,18.091-2.69,34.048s0.803,26.921,2.412,32.888
		c1.607,5.97,3.633,9.943,6.076,11.922c2.443,1.98,5.242,2.969,8.396,2.969s5.968-1.004,8.442-3.016
		c2.473-2.009,4.391-5.612,5.752-10.808c1.793-6.68,2.69-17.998,2.69-33.955s-0.805-26.919-2.412-32.888
		c-1.609-5.969-3.634-9.957-6.076-11.969C1214.539,470.8,1211.741,469.794,1208.587,469.794z"/>
</g>
</svg>
