<?xml version="1.0" encoding="utf-8"?>
<!-- Generator: Adobe Illustrator 17.0.0, SVG Export Plug-In . SVG Version: 6.00 Build 0)  -->
<!DOCTYPE svg PUBLIC "-//W3C//DTD SVG 1.1//EN" "http://www.w3.org/Graphics/SVG/1.1/DTD/svg11.dtd">
<svg version="1.1" id="Camada_1" xmlns="http://www.w3.org/2000/svg" xmlns:xlink="http://www.w3.org/1999/xlink" x="0px" y="0px"
	 width="332.176px" height="331.719px" viewBox="10.998 28.381 332.176 331.719"
	 enable-background="new 10.998 28.381 332.176 331.719" xml:space="preserve">
<g transform="translate(0.000000,412.000000) scale(0.100000,-0.100000)">
	<path fill="#FFFFFF" d="M392,3829c-147-25-243-122-271-274c-8-40-11-474-11-1390c0-1474-3-1398,65-1502c19-28,55-66,79-83
		c95-64-7-60,1524-61h1395l61,29c107,51,180,150,194,264c4,29,5,667,2,1418l-5,1365l-27,52c-38,72-89,120-167,157l-66,31l-1360,1
		C1050,3837,422,3834,392,3829z M1981,3079c76-26,119-93,119-189c0-63,21-90,70-90c163,0,230-71,230-245v-55h78c101,0,155-26,192-91
		l25-44l3-440c2-242,0-463-3-492c-8-64-38-110-90-140c-40-23-41-23-523-23c-528,0-525,0-575,59c-33,40-47,89-47,169v64l-40-7
		c-21-4-64-1-95,5c-101,21-153,90-162,216l-6,74h-43c-69,0-142,20-175,47c-65,55-64,42-67,542c-3,490,0,536,46,590
		c50,59,60,60,568,61C1804,3090,1958,3086,1981,3079z"/>
	<path fill="#FFFFFF" d="M1330,2751c-61-9-84-24-104-65c-14-30-16-84-16-415v-381h125h125v205c0,226,9,291,48,337
		c47,56,75,62,312,66c177,3,218,7,233,19c14,14,17,34,17,130v113l-347-1C1531,2758,1355,2754,1330,2751z"/>
	<path fill="#FFFFFF" d="M2108,2233c-3-215-4-231-26-275c-14-29-38-56-60-70c-35-22-47-23-279-26l-243-3v-114c0-127,5-139,67-151
		c20-4,183-3,362,1c341,7,367,11,406,55c19,21,20,38,23,416l3,394h-125h-125L2108,2233z"/>
</g>
</svg>
